<?xml version="1.0" encoding="utf-8"?>
<!-- License: CC Attribution. Made by Shannon E. Thomas: https://dribbble.com/shannonethomas -->
<svg version="1.1" id="Uploaded to svgrepo.com" xmlns="http://www.w3.org/2000/svg" xmlns:xlink="http://www.w3.org/1999/xlink" 
	 width="800px" height="800px" viewBox="0 0 32 32" xml:space="preserve">
<style type="text/css">
	.flatshadows_een{fill:#FDFFFF;}
	.flatshadows_twee{fill:#E1E5E5;}
	.flatshadows_drie{fill:#C4CCCC;}
	.flatshadows_vier{fill:#A3AFAF;}
	.flatshadows_vijf{fill:#8D9999;}
	.st0{fill:#C4CCCC;}
	.st1{fill:#404041;}
	.st2{fill:#737F7F;}
</style>
<g>
	<g>
		<circle class="flatshadows_vijf" cx="16" cy="16" r="13"/>
		<circle class="flatshadows_vijf" cx="16" cy="16" r="11"/>
		<path class="flatshadows_vijf" d="M10.346,4.308C9.458,3.503,8.292,3,7,3C4.239,3,2,5.239,2,8c0,1.502,0.676,2.834,1.725,3.75
			C4.859,8.476,7.259,5.803,10.346,4.308z"/>
		<path class="flatshadows_vijf" d="M25,3c-1.292,0-2.458,0.503-3.346,1.308c3.086,1.496,5.487,4.169,6.621,7.443
			C29.324,10.834,30,9.502,30,8C30,5.239,27.761,3,25,3z"/>
		<polygon class="flatshadows_vijf" points="15,7 15,15 10,15 10,17 17,17 17,7 		"/>
		<path class="flatshadows_vijf" d="M19.443,26.443c4.098-1.351,7.127-5.039,7.509-9.491L17,7v10h-7L19.443,26.443z"/>
		<g>
			<g>
				<path class="flatshadows_vijf" d="M23.56,26.56c2.586-1.855,4.467-4.627,5.152-7.848l-1.76-1.76
					c-0.382,4.451-3.411,8.14-7.509,9.491l4.148,4.147c0.263,0.263,0.619,0.41,0.99,0.41h0.02c0.773,0,1.4-0.627,1.4-1.4v-0.02
					c0-0.371-0.147-0.727-0.41-0.99L23.56,26.56z"/>
				<path class="flatshadows_vijf" d="M6.41,28.59C6.147,28.852,6,29.209,6,29.58v0.02C6,30.373,6.627,31,7.4,31H7.42
					c0.371,0,0.727-0.147,0.99-0.41L11,28c-0.913-0.381-1.767-0.87-2.561-1.439L6.41,28.59z"/>
			</g>
			<g>
				<path class="flatshadows_vijf" d="M23.56,26.56c2.586-1.855,4.467-4.627,5.152-7.848l-1.76-1.76
					c-0.382,4.451-3.411,8.14-7.509,9.491l4.148,4.147c0.263,0.263,0.619,0.41,0.99,0.41h0.02c0.773,0,1.4-0.627,1.4-1.4v-0.02
					c0-0.371-0.147-0.727-0.41-0.99L23.56,26.56z"/>
				<path class="flatshadows_vijf" d="M6.41,28.59C6.147,28.852,6,29.209,6,29.58v0.02C6,30.373,6.627,31,7.4,31H7.42
					c0.371,0,0.727-0.147,0.99-0.41L11,28c-0.913-0.381-1.767-0.87-2.561-1.439L6.41,28.59z"/>
			</g>
			<g>
				<path class="flatshadows_vijf" d="M23.56,26.56c2.586-1.855,4.467-4.627,5.152-7.848l-1.76-1.76
					c-0.382,4.451-3.411,8.14-7.509,9.491l4.148,4.147c0.263,0.263,0.619,0.41,0.99,0.41h0.02c0.773,0,1.4-0.627,1.4-1.4v-0.02
					c0-0.371-0.147-0.727-0.41-0.99L23.56,26.56z"/>
				<path class="flatshadows_vijf" d="M6.41,28.59C6.147,28.852,6,29.209,6,29.58v0.02C6,30.373,6.627,31,7.4,31H7.42
					c0.371,0,0.727-0.147,0.99-0.41L11,28c-0.913-0.381-1.767-0.87-2.561-1.439L6.41,28.59z"/>
			</g>
		</g>
	</g>
	<g>
		<circle class="flatshadows_vier" cx="16" cy="16" r="13"/>
		<circle class="flatshadows_twee" cx="16" cy="16" r="11"/>
		<path class="flatshadows_twee" d="M10.346,4.308C9.458,3.503,8.292,3,7,3C4.239,3,2,5.239,2,8c0,1.502,0.676,2.834,1.725,3.75
			C4.859,8.476,7.259,5.803,10.346,4.308z"/>
		<path class="flatshadows_twee" d="M25,3c-1.292,0-2.458,0.503-3.346,1.308c3.086,1.496,5.487,4.169,6.621,7.443
			C29.324,10.834,30,9.502,30,8C30,5.239,27.761,3,25,3z"/>
		<polygon class="flatshadows_een" points="15,7 15,15 10,15 10,17 17,17 17,7 		"/>
		<path class="flatshadows_drie" d="M19.443,26.443c4.098-1.351,7.127-5.039,7.509-9.491L17,7v10h-7L19.443,26.443z"/>
		<g>
			<g>
				<path class="flatshadows_vijf" d="M23.56,26.56c2.586-1.855,4.467-4.627,5.152-7.848l-1.76-1.76
					c-0.382,4.451-3.411,8.14-7.509,9.491l4.148,4.147c0.263,0.263,0.619,0.41,0.99,0.41h0.02c0.773,0,1.4-0.627,1.4-1.4v-0.02
					c0-0.371-0.147-0.727-0.41-0.99L23.56,26.56z"/>
				<path class="flatshadows_vijf" d="M6.41,28.59C6.147,28.852,6,29.209,6,29.58v0.02C6,30.373,6.627,31,7.4,31H7.42
					c0.371,0,0.727-0.147,0.99-0.41L11,28c-0.913-0.381-1.767-0.87-2.561-1.439L6.41,28.59z"/>
			</g>
			<g>
				<path class="flatshadows_vijf" d="M23.56,26.56c2.586-1.855,4.467-4.627,5.152-7.848l-1.76-1.76
					c-0.382,4.451-3.411,8.14-7.509,9.491l4.148,4.147c0.263,0.263,0.619,0.41,0.99,0.41h0.02c0.773,0,1.4-0.627,1.4-1.4v-0.02
					c0-0.371-0.147-0.727-0.41-0.99L23.56,26.56z"/>
				<path class="flatshadows_vijf" d="M6.41,28.59C6.147,28.852,6,29.209,6,29.58v0.02C6,30.373,6.627,31,7.4,31H7.42
					c0.371,0,0.727-0.147,0.99-0.41L11,28c-0.913-0.381-1.767-0.87-2.561-1.439L6.41,28.59z"/>
			</g>
		</g>
	</g>
</g>
</svg>